<?xml version="1.0" encoding="utf-8"?>
<!-- Generator: Adobe Illustrator 24.3.0, SVG Export Plug-In . SVG Version: 6.00 Build 0)  -->
<svg version="1.1" id="Layer_1" xmlns="http://www.w3.org/2000/svg" xmlns:xlink="http://www.w3.org/1999/xlink" x="0px" y="0px"
	 viewBox="0 0 84 81" style="enable-background:new 0 0 84 81;" xml:space="preserve">
<g>
	<g>
		<g>
			<circle cx="7" cy="5.5" r="2"/>
		</g>
		<g>
			<circle cx="17" cy="5.5" r="2"/>
		</g>
		<g>
			<circle cx="27" cy="5.5" r="2"/>
		</g>
		<g>
			<circle cx="37" cy="5.5" r="2"/>
		</g>
		<g>
			<circle cx="47" cy="5.5" r="2"/>
		</g>
		<g>
			<circle cx="57" cy="5.5" r="2"/>
		</g>
		<g>
			<circle cx="67" cy="5.5" r="2"/>
		</g>
		<g>
			<circle cx="77" cy="5.5" r="2"/>
		</g>
	</g>
	<g>
		<g>
			<circle cx="7" cy="15.5" r="2"/>
		</g>
		<g>
			<circle cx="17" cy="15.5" r="2"/>
		</g>
		<g>
			<circle cx="27" cy="15.5" r="2"/>
		</g>
		<g>
			<circle cx="37" cy="15.5" r="2"/>
		</g>
		<g>
			<circle cx="47" cy="15.5" r="2"/>
		</g>
		<g>
			<circle cx="57" cy="15.5" r="2"/>
		</g>
		<g>
			<circle cx="67" cy="15.5" r="2"/>
		</g>
		<g>
			<circle cx="77" cy="15.5" r="2"/>
		</g>
	</g>
	<g>
		<g>
			<circle cx="7" cy="25.5" r="2"/>
		</g>
		<g>
			<circle cx="17" cy="25.5" r="2"/>
		</g>
		<g>
			<circle cx="27" cy="25.5" r="2"/>
		</g>
		<g>
			<circle cx="37" cy="25.5" r="2"/>
		</g>
		<g>
			<circle cx="47" cy="25.5" r="2"/>
		</g>
		<g>
			<circle cx="57" cy="25.5" r="2"/>
		</g>
		<g>
			<circle cx="67" cy="25.5" r="2"/>
		</g>
		<g>
			<circle cx="77" cy="25.5" r="2"/>
		</g>
	</g>
	<g>
		<g>
			<circle cx="7" cy="35.5" r="2"/>
		</g>
		<g>
			<circle cx="17" cy="35.5" r="2"/>
		</g>
		<g>
			<circle cx="27" cy="35.5" r="2"/>
		</g>
		<g>
			<circle cx="37" cy="35.5" r="2"/>
		</g>
		<g>
			<circle cx="47" cy="35.5" r="2"/>
		</g>
		<g>
			<circle cx="57" cy="35.5" r="2"/>
		</g>
		<g>
			<circle cx="67" cy="35.5" r="2"/>
		</g>
		<g>
			<circle cx="77" cy="35.5" r="2"/>
		</g>
	</g>
	<g>
		<g>
			<circle cx="7" cy="45.5" r="2"/>
		</g>
		<g>
			<circle cx="17" cy="45.5" r="2"/>
		</g>
		<g>
			<circle cx="27" cy="45.5" r="2"/>
		</g>
		<g>
			<circle cx="37" cy="45.5" r="2"/>
		</g>
		<g>
			<circle cx="47" cy="45.5" r="2"/>
		</g>
		<g>
			<circle cx="57" cy="45.5" r="2"/>
		</g>
		<g>
			<circle cx="67" cy="45.5" r="2"/>
		</g>
		<g>
			<circle cx="77" cy="45.5" r="2"/>
		</g>
	</g>
	<g>
		<g>
			<circle cx="7" cy="55.5" r="2"/>
		</g>
		<g>
			<circle cx="17" cy="55.5" r="2"/>
		</g>
		<g>
			<circle cx="27" cy="55.5" r="2"/>
		</g>
		<g>
			<circle cx="37" cy="55.5" r="2"/>
		</g>
		<g>
			<circle cx="47" cy="55.5" r="2"/>
		</g>
		<g>
			<circle cx="57" cy="55.5" r="2"/>
		</g>
		<g>
			<circle cx="67" cy="55.5" r="2"/>
		</g>
		<g>
			<circle cx="77" cy="55.5" r="2"/>
		</g>
	</g>
	<g>
		<g>
			<circle cx="7" cy="65.5" r="2"/>
		</g>
		<g>
			<circle cx="17" cy="65.5" r="2"/>
		</g>
		<g>
			<circle cx="27" cy="65.5" r="2"/>
		</g>
		<g>
			<circle cx="37" cy="65.5" r="2"/>
		</g>
		<g>
			<circle cx="47" cy="65.5" r="2"/>
		</g>
		<g>
			<circle cx="57" cy="65.5" r="2"/>
		</g>
		<g>
			<circle cx="67" cy="65.5" r="2"/>
		</g>
		<g>
			<circle cx="77" cy="65.5" r="2"/>
		</g>
	</g>
	<g>
		<g>
			<circle cx="7" cy="75.5" r="2"/>
		</g>
		<g>
			<circle cx="17" cy="75.5" r="2"/>
		</g>
		<g>
			<circle cx="27" cy="75.5" r="2"/>
		</g>
		<g>
			<circle cx="37" cy="75.5" r="2"/>
		</g>
		<g>
			<circle cx="47" cy="75.5" r="2"/>
		</g>
		<g>
			<circle cx="57" cy="75.5" r="2"/>
		</g>
		<g>
			<circle cx="67" cy="75.5" r="2"/>
		</g>
		<g>
			<circle cx="77" cy="75.5" r="2"/>
		</g>
	</g>
</g>
</svg>
